<?xml version="1.0" encoding="UTF-8"?>
<svg id="Layer_2" data-name="Layer 2" xmlns="http://www.w3.org/2000/svg" viewBox="0 0 236 213.82">
  <defs>
    <style>
      .cls-1 {
        fill: #339;
      }

      .cls-2, .cls-3 {
        fill: #2e3192;
      }

      .cls-4 {
        fill: #fff;
        stroke: #fff;
      }

      .cls-4, .cls-3 {
        stroke-miterlimit: 10;
      }

      .cls-3 {
        stroke: #339;
      }
    </style>
  </defs>
  <g id="cake">
    <g>
      <g id="candle5">
        <rect class="cls-2" x="113.5" y="29.32" width="10" height="66"/>
        <path class="cls-1" d="M123,29.82V94.82h-9V29.82h9m1-1h-11V95.82h11V28.82h0Z"/>
      </g>
      <g id="candle4">
        <rect class="cls-2" x="161.5" y="29.32" width="10" height="66"/>
        <path class="cls-1" d="M171,29.82V94.82h-9V29.82h9m1-1h-11V95.82h11V28.82h0Z"/>
      </g>
      <g id="candle3">
        <rect class="cls-2" x="63.5" y="29.32" width="10" height="66"/>
        <path class="cls-1" d="M73,29.82V94.82h-9V29.82h9m1-1h-11V95.82h11V28.82h0Z"/>
      </g>
      <g id="candle2">
        <rect class="cls-2" x="137.5" y="29.32" width="10" height="66"/>
        <path class="cls-1" d="M147,29.82V94.82h-9V29.82h9m1-1h-11V95.82h11V28.82h0Z"/>
      </g>
      <g id="candle">
        <rect class="cls-2" x="87.5" y="29.32" width="10" height="66"/>
        <path class="cls-1" d="M97,29.82V94.82h-9V29.82h9m1-1h-11V95.82h11V28.82h0Z"/>
      </g>
      <g id="flame5">
        <ellipse class="cls-3" cx="166.5" cy="19.32" rx="7" ry="8"/>
        <polygon class="cls-3" points="166.5 1.32 172.5 15.32 160.5 15.32 166.5 1.32"/>
      </g>
      <g id="flame4">
        <ellipse class="cls-3" cx="141.77" cy="19.27" rx="7" ry="8"/>
        <polygon class="cls-3" points="141.77 1.27 147.77 15.27 135.77 15.27 141.77 1.27"/>
      </g>
      <g id="flame3">
        <ellipse class="cls-3" cx="117.77" cy="19.27" rx="7" ry="8"/>
        <polygon class="cls-3" points="117.77 1.27 123.77 15.27 111.77 15.27 117.77 1.27"/>
      </g>
      <g id="flame2">
        <ellipse class="cls-3" cx="92.77" cy="19.27" rx="7" ry="8"/>
        <polygon class="cls-3" points="92.77 1.27 98.77 15.27 86.77 15.27 92.77 1.27"/>
      </g>
      <g id="flame1">
        <ellipse class="cls-3" cx="68.77" cy="19.27" rx="7" ry="8"/>
        <polygon class="cls-3" points="68.77 1.27 74.77 15.27 62.77 15.27 68.77 1.27"/>
      </g>
      <g id="base_cake" data-name="base cake">
        <path class="cls-2" d="M13.19,142.32H222.81c7,0,12.69,5.69,12.69,12.69v45.62c0,7-5.69,12.69-12.69,12.69H13.19c-7,0-12.69-5.69-12.69-12.69v-45.62c0-7,5.69-12.69,12.69-12.69Z"/>
        <path class="cls-1" d="M222.81,142.82c6.72,0,12.19,5.47,12.19,12.19v45.62c0,6.72-5.47,12.19-12.19,12.19H13.19c-6.72,0-12.19-5.47-12.19-12.19v-45.62c0-6.72,5.47-12.19,12.19-12.19H222.81m0-1H13.19c-7.28,0-13.19,5.9-13.19,13.19v45.62c0,7.28,5.9,13.19,13.19,13.19H222.81c7.28,0,13.19-5.9,13.19-13.19v-45.62c0-7.28-5.9-13.19-13.19-13.19h0Z"/>
      </g>
      <g id="base_cake-2" data-name="base cake">
        <path class="cls-2" d="M42.19,88.32H192.81c7,0,12.69,5.69,12.69,12.69v44.25c0,7-5.69,12.69-12.69,12.69H42.19c-7,0-12.69-5.69-12.69-12.69v-44.25c0-7,5.69-12.69,12.69-12.69Z"/>
        <path class="cls-1" d="M192.81,88.82c6.72,0,12.19,5.47,12.19,12.19v44.25c0,6.72-5.47,12.19-12.19,12.19H42.19c-6.72,0-12.19-5.47-12.19-12.19v-44.25c0-6.72,5.47-12.19,12.19-12.19H192.81m0-1H42.19c-7.28,0-13.19,5.9-13.19,13.19v44.25c0,7.28,5.9,13.19,13.19,13.19H192.81c7.28,0,13.19-5.9,13.19-13.19v-44.25c0-7.28-5.9-13.19-13.19-13.19h0Z"/>
      </g>
      <g>
        <path class="cls-4" d="M105.27,105.06c.26,1.44,4.67,25.2,12.9,25,8.1-.2,12.41-23.4,12.69-25-1.42,3.81-6.14,15.45-13,15.22-6.61-.22-11.15-11.34-12.59-15.22Z"/>
        <path class="cls-4" d="M131.27,105.06c.26,1.44,4.67,25.2,12.9,25,8.1-.2,12.41-23.4,12.69-25-1.42,3.81-6.14,15.45-13,15.22-6.61-.22-11.15-11.34-12.59-15.22Z"/>
        <path class="cls-4" d="M157.27,105.06c.26,1.44,4.67,25.2,12.9,25,8.1-.2,12.41-23.4,12.69-25-1.42,3.81-6.14,15.45-13,15.22-6.61-.22-11.15-11.34-12.59-15.22Z"/>
        <path class="cls-4" d="M183.27,105.06c.26,1.44,4.67,25.2,12.9,25,8.1-.2,12.41-23.4,12.69-25-1.42,3.81-6.14,15.45-13,15.22-6.61-.22-11.15-11.34-12.59-15.22Z"/>
        <path class="cls-4" d="M79.48,105.22c.26,1.44,4.67,25.2,12.9,25,8.1-.2,12.41-23.4,12.69-25-1.42,3.81-6.14,15.45-13,15.22-6.61-.22-11.15-11.34-12.59-15.22Z"/>
        <path class="cls-4" d="M53.48,105.22c.26,1.44,4.67,25.2,12.9,25,8.1-.2,12.41-23.4,12.69-25-1.42,3.81-6.14,15.45-13,15.22-6.61-.22-11.15-11.34-12.59-15.22Z"/>
        <path class="cls-4" d="M27.48,105.22c.26,1.44,4.67,25.2,12.9,25,8.1-.2,12.41-23.4,12.69-25-1.42,3.81-6.14,15.45-13,15.22-6.61-.22-11.15-11.34-12.59-15.22Z"/>
      </g>
    </g>
  </g>
</svg>